<mxfile host="app.diagrams.net" agent="Mozilla/5.0 (Macintosh; Intel Mac OS X 10_15_7) AppleWebKit/537.36 (KHTML, like Gecko) Chrome/132.0.0.0 Safari/537.36" version="26.0.10">
  <diagram name="Page-1" id="95jNA9ojznbn4mmwmEww">
    <mxGraphModel dx="826" dy="455" grid="1" gridSize="10" guides="1" tooltips="1" connect="1" arrows="1" fold="1" page="1" pageScale="1" pageWidth="827" pageHeight="1169" background="#ffffff" math="0" shadow="0">
      <root>
        <mxCell id="0" />
        <mxCell id="1" parent="0" />
        <mxCell id="eyxCzTGyWzFZVntszjCe-2" value="" style="endArrow=none;html=1;rounded=0;sketch=1;hachureGap=4;jiggle=2;curveFitting=1;fontFamily=Architects Daughter;fontSource=https%3A%2F%2Ffonts.googleapis.com%2Fcss%3Ffamily%3DArchitects%2BDaughter;fillColor=#d5e8d4;strokeColor=#82b366;" edge="1" parent="1">
          <mxGeometry width="50" height="50" relative="1" as="geometry">
            <mxPoint x="110" y="40" as="sourcePoint" />
            <mxPoint x="230" y="40" as="targetPoint" />
          </mxGeometry>
        </mxCell>
        <mxCell id="eyxCzTGyWzFZVntszjCe-3" value="" style="endArrow=none;html=1;rounded=0;sketch=1;hachureGap=4;jiggle=2;curveFitting=1;fontFamily=Architects Daughter;fontSource=https%3A%2F%2Ffonts.googleapis.com%2Fcss%3Ffamily%3DArchitects%2BDaughter;fillColor=#d5e8d4;strokeColor=#82b366;" edge="1" parent="1">
          <mxGeometry width="50" height="50" relative="1" as="geometry">
            <mxPoint x="90" y="430" as="sourcePoint" />
            <mxPoint x="110" y="40" as="targetPoint" />
          </mxGeometry>
        </mxCell>
        <mxCell id="eyxCzTGyWzFZVntszjCe-4" value="" style="endArrow=none;html=1;rounded=0;sketch=1;hachureGap=4;jiggle=2;curveFitting=1;fontFamily=Architects Daughter;fontSource=https%3A%2F%2Ffonts.googleapis.com%2Fcss%3Ffamily%3DArchitects%2BDaughter;fillColor=#ffe6cc;strokeColor=#d79b00;" edge="1" parent="1">
          <mxGeometry width="50" height="50" relative="1" as="geometry">
            <mxPoint x="405" y="430" as="sourcePoint" />
            <mxPoint x="385" y="40" as="targetPoint" />
          </mxGeometry>
        </mxCell>
        <mxCell id="eyxCzTGyWzFZVntszjCe-5" value="" style="endArrow=none;html=1;rounded=0;sketch=1;hachureGap=4;jiggle=2;curveFitting=1;fontFamily=Architects Daughter;fontSource=https%3A%2F%2Ffonts.googleapis.com%2Fcss%3Ffamily%3DArchitects%2BDaughter;fillColor=#ffe6cc;strokeColor=#d79b00;" edge="1" parent="1">
          <mxGeometry width="50" height="50" relative="1" as="geometry">
            <mxPoint x="230" y="430" as="sourcePoint" />
            <mxPoint x="410" y="430" as="targetPoint" />
          </mxGeometry>
        </mxCell>
        <mxCell id="eyxCzTGyWzFZVntszjCe-6" value="" style="endArrow=classic;startArrow=classic;html=1;rounded=0;sketch=1;hachureGap=4;jiggle=2;curveFitting=1;fontFamily=Architects Daughter;fontSource=https%3A%2F%2Ffonts.googleapis.com%2Fcss%3Ffamily%3DArchitects%2BDaughter;" edge="1" parent="1">
          <mxGeometry width="50" height="50" relative="1" as="geometry">
            <mxPoint x="90" y="450" as="sourcePoint" />
            <mxPoint x="400" y="450" as="targetPoint" />
          </mxGeometry>
        </mxCell>
        <mxCell id="eyxCzTGyWzFZVntszjCe-8" value="39ft" style="text;html=1;align=center;verticalAlign=middle;whiteSpace=wrap;rounded=0;fontFamily=Architects Daughter;fontSource=https%3A%2F%2Ffonts.googleapis.com%2Fcss%3Ffamily%3DArchitects%2BDaughter;" vertex="1" parent="1">
          <mxGeometry x="210" y="426" width="60" height="30" as="geometry" />
        </mxCell>
        <mxCell id="eyxCzTGyWzFZVntszjCe-9" value="" style="endArrow=classic;startArrow=classic;html=1;rounded=0;sketch=1;hachureGap=4;jiggle=2;curveFitting=1;fontFamily=Architects Daughter;fontSource=https%3A%2F%2Ffonts.googleapis.com%2Fcss%3Ffamily%3DArchitects%2BDaughter;" edge="1" parent="1">
          <mxGeometry width="50" height="50" relative="1" as="geometry">
            <mxPoint x="110" y="25" as="sourcePoint" />
            <mxPoint x="380" y="25" as="targetPoint" />
          </mxGeometry>
        </mxCell>
        <mxCell id="eyxCzTGyWzFZVntszjCe-10" value="34ft" style="text;html=1;align=center;verticalAlign=middle;whiteSpace=wrap;rounded=0;fontFamily=Architects Daughter;fontSource=https%3A%2F%2Ffonts.googleapis.com%2Fcss%3Ffamily%3DArchitects%2BDaughter;" vertex="1" parent="1">
          <mxGeometry x="210" y="18" width="60" height="30" as="geometry" />
        </mxCell>
        <mxCell id="eyxCzTGyWzFZVntszjCe-11" value="" style="endArrow=none;html=1;rounded=0;sketch=1;hachureGap=4;jiggle=2;curveFitting=1;fontFamily=Architects Daughter;fontSource=https%3A%2F%2Ffonts.googleapis.com%2Fcss%3Ffamily%3DArchitects%2BDaughter;fillColor=#ffe6cc;strokeColor=#d79b00;" edge="1" parent="1">
          <mxGeometry width="50" height="50" relative="1" as="geometry">
            <mxPoint x="230" y="430" as="sourcePoint" />
            <mxPoint x="230" y="40" as="targetPoint" />
          </mxGeometry>
        </mxCell>
        <mxCell id="eyxCzTGyWzFZVntszjCe-12" value="" style="endArrow=none;dashed=1;html=1;rounded=0;sketch=1;hachureGap=4;jiggle=2;curveFitting=1;fontFamily=Architects Daughter;fontSource=https%3A%2F%2Ffonts.googleapis.com%2Fcss%3Ffamily%3DArchitects%2BDaughter;shadow=0;fillColor=#ffe6cc;strokeColor=#d79b00;" edge="1" parent="1">
          <mxGeometry width="50" height="50" relative="1" as="geometry">
            <mxPoint x="280" y="430" as="sourcePoint" />
            <mxPoint x="270" y="40" as="targetPoint" />
          </mxGeometry>
        </mxCell>
        <mxCell id="eyxCzTGyWzFZVntszjCe-13" value="" style="endArrow=none;dashed=1;html=1;rounded=0;sketch=1;hachureGap=4;jiggle=2;curveFitting=1;fontFamily=Architects Daughter;fontSource=https%3A%2F%2Ffonts.googleapis.com%2Fcss%3Ffamily%3DArchitects%2BDaughter;fillColor=#ffe6cc;strokeColor=#d79b00;" edge="1" parent="1">
          <mxGeometry width="50" height="50" relative="1" as="geometry">
            <mxPoint x="320" y="430" as="sourcePoint" />
            <mxPoint x="310" y="40" as="targetPoint" />
          </mxGeometry>
        </mxCell>
        <mxCell id="eyxCzTGyWzFZVntszjCe-14" value="" style="endArrow=none;dashed=1;html=1;rounded=0;sketch=1;hachureGap=4;jiggle=2;curveFitting=1;fontFamily=Architects Daughter;fontSource=https%3A%2F%2Ffonts.googleapis.com%2Fcss%3Ffamily%3DArchitects%2BDaughter;fillColor=#ffe6cc;strokeColor=#d79b00;" edge="1" parent="1">
          <mxGeometry width="50" height="50" relative="1" as="geometry">
            <mxPoint x="360" y="430" as="sourcePoint" />
            <mxPoint x="350" y="40" as="targetPoint" />
          </mxGeometry>
        </mxCell>
        <mxCell id="eyxCzTGyWzFZVntszjCe-15" value="" style="endArrow=classic;startArrow=classic;html=1;rounded=0;sketch=1;hachureGap=4;jiggle=2;curveFitting=1;fontFamily=Architects Daughter;fontSource=https%3A%2F%2Ffonts.googleapis.com%2Fcss%3Ffamily%3DArchitects%2BDaughter;" edge="1" parent="1">
          <mxGeometry width="50" height="50" relative="1" as="geometry">
            <mxPoint x="60" y="40" as="sourcePoint" />
            <mxPoint x="60" y="430" as="targetPoint" />
          </mxGeometry>
        </mxCell>
        <mxCell id="eyxCzTGyWzFZVntszjCe-16" value="182ft" style="text;html=1;align=center;verticalAlign=middle;whiteSpace=wrap;rounded=0;fontFamily=Architects Daughter;fontSource=https%3A%2F%2Ffonts.googleapis.com%2Fcss%3Ffamily%3DArchitects%2BDaughter;rotation=270;" vertex="1" parent="1">
          <mxGeometry x="40" y="210" width="60" height="30" as="geometry" />
        </mxCell>
        <mxCell id="eyxCzTGyWzFZVntszjCe-17" value="" style="endArrow=classic;startArrow=classic;html=1;rounded=0;sketch=1;hachureGap=4;jiggle=2;curveFitting=1;fontFamily=Architects Daughter;fontSource=https%3A%2F%2Ffonts.googleapis.com%2Fcss%3Ffamily%3DArchitects%2BDaughter;" edge="1" parent="1">
          <mxGeometry width="50" height="50" relative="1" as="geometry">
            <mxPoint x="420" y="40" as="sourcePoint" />
            <mxPoint x="420" y="430" as="targetPoint" />
          </mxGeometry>
        </mxCell>
        <mxCell id="eyxCzTGyWzFZVntszjCe-18" value="182ft" style="text;html=1;align=center;verticalAlign=middle;whiteSpace=wrap;rounded=0;fontFamily=Architects Daughter;fontSource=https%3A%2F%2Ffonts.googleapis.com%2Fcss%3Ffamily%3DArchitects%2BDaughter;rotation=270;" vertex="1" parent="1">
          <mxGeometry x="379" y="180" width="60" height="30" as="geometry" />
        </mxCell>
        <mxCell id="eyxCzTGyWzFZVntszjCe-20" value="" style="endArrow=none;dashed=1;html=1;rounded=0;sketch=1;hachureGap=4;jiggle=2;curveFitting=1;fontFamily=Architects Daughter;fontSource=https%3A%2F%2Ffonts.googleapis.com%2Fcss%3Ffamily%3DArchitects%2BDaughter;shadow=0;fillColor=#d5e8d4;strokeColor=#82b366;" edge="1" parent="1">
          <mxGeometry width="50" height="50" relative="1" as="geometry">
            <mxPoint x="130" y="430" as="sourcePoint" />
            <mxPoint x="150" y="40" as="targetPoint" />
          </mxGeometry>
        </mxCell>
        <mxCell id="eyxCzTGyWzFZVntszjCe-21" value="" style="endArrow=none;dashed=1;html=1;rounded=0;sketch=1;hachureGap=4;jiggle=2;curveFitting=1;fontFamily=Architects Daughter;fontSource=https%3A%2F%2Ffonts.googleapis.com%2Fcss%3Ffamily%3DArchitects%2BDaughter;shadow=0;fillColor=#d5e8d4;strokeColor=#82b366;" edge="1" parent="1">
          <mxGeometry width="50" height="50" relative="1" as="geometry">
            <mxPoint x="175" y="430" as="sourcePoint" />
            <mxPoint x="195" y="40" as="targetPoint" />
          </mxGeometry>
        </mxCell>
        <mxCell id="eyxCzTGyWzFZVntszjCe-22" value="" style="endArrow=none;html=1;rounded=0;sketch=1;hachureGap=4;jiggle=2;curveFitting=1;fontFamily=Architects Daughter;fontSource=https%3A%2F%2Ffonts.googleapis.com%2Fcss%3Ffamily%3DArchitects%2BDaughter;fillColor=#d5e8d4;strokeColor=#82b366;" edge="1" parent="1">
          <mxGeometry width="50" height="50" relative="1" as="geometry">
            <mxPoint x="227" y="432" as="sourcePoint" />
            <mxPoint x="227" y="42" as="targetPoint" />
          </mxGeometry>
        </mxCell>
        <mxCell id="eyxCzTGyWzFZVntszjCe-23" value="" style="endArrow=none;html=1;rounded=0;sketch=1;hachureGap=4;jiggle=2;curveFitting=1;fontFamily=Architects Daughter;fontSource=https%3A%2F%2Ffonts.googleapis.com%2Fcss%3Ffamily%3DArchitects%2BDaughter;fillColor=#ffe6cc;strokeColor=#d79b00;" edge="1" parent="1">
          <mxGeometry width="50" height="50" relative="1" as="geometry">
            <mxPoint x="230" y="40" as="sourcePoint" />
            <mxPoint x="390" y="40" as="targetPoint" />
          </mxGeometry>
        </mxCell>
        <mxCell id="eyxCzTGyWzFZVntszjCe-24" value="" style="endArrow=none;html=1;rounded=0;sketch=1;hachureGap=4;jiggle=2;curveFitting=1;fontFamily=Architects Daughter;fontSource=https%3A%2F%2Ffonts.googleapis.com%2Fcss%3Ffamily%3DArchitects%2BDaughter;fillColor=#d5e8d4;strokeColor=#82b366;" edge="1" parent="1">
          <mxGeometry width="50" height="50" relative="1" as="geometry">
            <mxPoint x="90" y="430" as="sourcePoint" />
            <mxPoint x="230" y="430" as="targetPoint" />
          </mxGeometry>
        </mxCell>
        <mxCell id="eyxCzTGyWzFZVntszjCe-25" value="" style="rounded=0;whiteSpace=wrap;html=1;sketch=1;hachureGap=4;jiggle=2;curveFitting=1;fontFamily=Architects Daughter;fontSource=https%3A%2F%2Ffonts.googleapis.com%2Fcss%3Ffamily%3DArchitects%2BDaughter;fillColor=#ffe6cc;strokeColor=#d79b00;" vertex="1" parent="1">
          <mxGeometry x="450" y="30" width="50" height="200" as="geometry" />
        </mxCell>
        <mxCell id="eyxCzTGyWzFZVntszjCe-26" value="" style="rounded=0;whiteSpace=wrap;html=1;sketch=1;hachureGap=4;jiggle=2;curveFitting=1;fontFamily=Architects Daughter;fontSource=https%3A%2F%2Ffonts.googleapis.com%2Fcss%3Ffamily%3DArchitects%2BDaughter;fillColor=#d5e8d4;strokeColor=#82b366;" vertex="1" parent="1">
          <mxGeometry x="450" y="290" width="50" height="120" as="geometry" />
        </mxCell>
        <mxCell id="eyxCzTGyWzFZVntszjCe-27" value="Poriman: 10 shotok(out of 13 shotok), 4 te alada alada dolil marfot&lt;br&gt;From: Shonatara saha (Parent khotiyan-848, 849, 850)&lt;div&gt;To:&amp;nbsp;&lt;/div&gt;&lt;div&gt;Pranbandhu 2.5 shotok (khotiyan - 3913) --&amp;gt; Debabrata, Joydeb Dey&lt;/div&gt;&lt;div&gt;Joydeb Mazumder,&amp;nbsp;&lt;span style=&quot;background-color: transparent; color: light-dark(rgb(0, 0, 0), rgb(255, 255, 255));&quot;&gt;2.5 shotok&lt;/span&gt;&lt;span style=&quot;background-color: transparent; color: light-dark(rgb(0, 0, 0), rgb(255, 255, 255));&quot;&gt;&amp;nbsp;(khotiyan - 3911) --&amp;gt;Ashok, Ajoy (2.5shotok) Note-0.84 shotok from Bijoy&lt;/span&gt;&lt;/div&gt;&lt;div&gt;Rebati (khotiyan - xxxx),&amp;nbsp;&lt;span style=&quot;background-color: transparent; color: light-dark(rgb(0, 0, 0), rgb(255, 255, 255));&quot;&gt;2.5 shotok&amp;nbsp;&lt;/span&gt;&lt;span style=&quot;background-color: transparent; color: light-dark(rgb(0, 0, 0), rgb(255, 255, 255));&quot;&gt;--&amp;gt; Debabrata (2.5 shotok)&lt;/span&gt;&lt;/div&gt;&lt;div&gt;Debabrata (khotiyan - 3912)&amp;nbsp;&lt;span style=&quot;background-color: transparent; color: light-dark(rgb(0, 0, 0), rgb(255, 255, 255));&quot;&gt;2.5 shotok&amp;nbsp;&lt;/span&gt;&lt;span style=&quot;background-color: transparent; color: light-dark(rgb(0, 0, 0), rgb(255, 255, 255));&quot;&gt;--&amp;gt; Surajit Mondal (2 shotok)&lt;/span&gt;&lt;/div&gt;" style="text;align=left;verticalAlign=middle;whiteSpace=wrap;rounded=0;fontFamily=Architects Daughter;fontSource=https%3A%2F%2Ffonts.googleapis.com%2Fcss%3Ffamily%3DArchitects%2BDaughter;html=1;labelBorderColor=none;fontColor=default;" vertex="1" parent="1">
          <mxGeometry x="510" y="40" width="270" height="160" as="geometry" />
        </mxCell>
        <mxCell id="eyxCzTGyWzFZVntszjCe-28" value="&lt;span style=&quot;text-align: left;&quot;&gt;khotiyan - 3913, 2.5shotok, Shonatara to Pranbandhu then Pranbandhu to Joydeb Dey 1 shotok and Debu 1.5 shotok&amp;nbsp;&lt;/span&gt;" style="text;html=1;align=center;verticalAlign=middle;whiteSpace=wrap;rounded=0;fontFamily=Architects Daughter;fontSource=https%3A%2F%2Ffonts.googleapis.com%2Fcss%3Ffamily%3DArchitects%2BDaughter;rotation=270;" vertex="1" parent="1">
          <mxGeometry x="190" y="225" width="367.5" height="30" as="geometry" />
        </mxCell>
        <mxCell id="eyxCzTGyWzFZVntszjCe-29" value="&lt;span style=&quot;text-align: left;&quot;&gt;khotiyan - 3911, Dolil No: I-3923, I-10744, 2.5 shotok -&amp;gt;Ashok Ajoy&lt;/span&gt;" style="text;html=1;align=center;verticalAlign=middle;whiteSpace=wrap;rounded=0;fontFamily=Architects Daughter;fontSource=https%3A%2F%2Ffonts.googleapis.com%2Fcss%3Ffamily%3DArchitects%2BDaughter;rotation=270;" vertex="1" parent="1">
          <mxGeometry x="152.38" y="208.13" width="359.25" height="30" as="geometry" />
        </mxCell>
        <mxCell id="eyxCzTGyWzFZVntszjCe-30" value="&lt;span style=&quot;text-align: left;&quot;&gt;2.5 shotok, Shonatara to Rebati, , then Rebati to Debabrata&lt;/span&gt;" style="text;html=1;align=center;verticalAlign=middle;whiteSpace=wrap;rounded=0;fontFamily=Architects Daughter;fontSource=https%3A%2F%2Ffonts.googleapis.com%2Fcss%3Ffamily%3DArchitects%2BDaughter;rotation=270;" vertex="1" parent="1">
          <mxGeometry x="110" y="225" width="370" height="30" as="geometry" />
        </mxCell>
        <mxCell id="eyxCzTGyWzFZVntszjCe-31" value="&lt;span style=&quot;text-align: left;&quot;&gt;khotiyan - 3912, 2.5 shotok, Owner: Debabrata&lt;/span&gt;" style="text;html=1;align=center;verticalAlign=middle;whiteSpace=wrap;rounded=0;fontFamily=Architects Daughter;fontSource=https%3A%2F%2Ffonts.googleapis.com%2Fcss%3Ffamily%3DArchitects%2BDaughter;rotation=270;" vertex="1" parent="1">
          <mxGeometry x="70" y="215" width="370" height="30" as="geometry" />
        </mxCell>
        <mxCell id="eyxCzTGyWzFZVntszjCe-32" value="Narayan Dutta" style="text;html=1;align=center;verticalAlign=middle;whiteSpace=wrap;rounded=0;fontFamily=Architects Daughter;fontSource=https%3A%2F%2Ffonts.googleapis.com%2Fcss%3Ffamily%3DArchitects%2BDaughter;" vertex="1" parent="1">
          <mxGeometry x="150" y="444" width="150" height="30" as="geometry" />
        </mxCell>
        <mxCell id="eyxCzTGyWzFZVntszjCe-34" value="Paka Rasta" style="text;html=1;align=center;verticalAlign=middle;whiteSpace=wrap;rounded=0;fontFamily=Architects Daughter;fontSource=https%3A%2F%2Ffonts.googleapis.com%2Fcss%3Ffamily%3DArchitects%2BDaughter;" vertex="1" parent="1">
          <mxGeometry x="180" width="110" height="30" as="geometry" />
        </mxCell>
        <mxCell id="eyxCzTGyWzFZVntszjCe-35" value="Usharani Ghosh/ Babu Ghosh" style="text;html=1;align=center;verticalAlign=middle;whiteSpace=wrap;rounded=0;fontFamily=Architects Daughter;fontSource=https%3A%2F%2Ffonts.googleapis.com%2Fcss%3Ffamily%3DArchitects%2BDaughter;rotation=270;" vertex="1" parent="1">
          <mxGeometry x="-36" y="168" width="164" height="30" as="geometry" />
        </mxCell>
        <mxCell id="eyxCzTGyWzFZVntszjCe-36" value="&lt;span style=&quot;text-align: left;&quot;&gt;2 shotok,&amp;nbsp;&lt;/span&gt;&lt;span style=&quot;text-align: left;&quot;&gt;Dolil No: I-2754, I-3504 and 1-10591 , ashok, ajoy&lt;/span&gt;" style="text;html=1;align=center;verticalAlign=middle;whiteSpace=wrap;rounded=0;fontFamily=Architects Daughter;fontSource=https%3A%2F%2Ffonts.googleapis.com%2Fcss%3Ffamily%3DArchitects%2BDaughter;rotation=270;" vertex="1" parent="1">
          <mxGeometry x="-49.5" y="211.5" width="336" height="30" as="geometry" />
        </mxCell>
        <mxCell id="eyxCzTGyWzFZVntszjCe-37" value="&lt;span style=&quot;text-align: left;&quot;&gt;2 shotok,&amp;nbsp;&lt;/span&gt;&lt;span style=&quot;text-align: left;&quot;&gt;Dolil No: I-2753, I-3504 and 1-10591 , ashok, ajoy, Debu&lt;/span&gt;" style="text;html=1;align=center;verticalAlign=middle;whiteSpace=wrap;rounded=0;fontFamily=Architects Daughter;fontSource=https%3A%2F%2Ffonts.googleapis.com%2Fcss%3Ffamily%3DArchitects%2BDaughter;rotation=270;" vertex="1" parent="1">
          <mxGeometry x="-15.75" y="213.75" width="351.5" height="30" as="geometry" />
        </mxCell>
        <mxCell id="eyxCzTGyWzFZVntszjCe-38" value="&lt;span style=&quot;text-align: left;&quot;&gt;2 shotok,&amp;nbsp;&lt;/span&gt;&lt;span style=&quot;text-align: left;&quot;&gt;Dolil No: I-2768, I-3504 and 1-10591 , ashok, ajoy, Debu&lt;/span&gt;" style="text;html=1;align=center;verticalAlign=middle;whiteSpace=wrap;rounded=0;fontFamily=Architects Daughter;fontSource=https%3A%2F%2Ffonts.googleapis.com%2Fcss%3Ffamily%3DArchitects%2BDaughter;rotation=270;" vertex="1" parent="1">
          <mxGeometry x="28" y="225" width="352" height="30" as="geometry" />
        </mxCell>
        <mxCell id="eyxCzTGyWzFZVntszjCe-39" value="Joydeb Dey" style="text;html=1;align=center;verticalAlign=middle;whiteSpace=wrap;rounded=0;fontFamily=Architects Daughter;fontSource=https%3A%2F%2Ffonts.googleapis.com%2Fcss%3Ffamily%3DArchitects%2BDaughter;rotation=270;" vertex="1" parent="1">
          <mxGeometry x="368" y="148" width="128" height="30" as="geometry" />
        </mxCell>
        <mxCell id="eyxCzTGyWzFZVntszjCe-40" value="Poriman: 6 shotok (0ut of 13 shotok), 3 te alada dolil marfot sale&amp;nbsp;&lt;br&gt;From: Kashi Nath Roy and Smt. Kanan Roy (Parent khotiyan-848, 849, 850)&lt;div&gt;To:&amp;nbsp;&lt;/div&gt;&lt;div&gt;Pranbandhu (1 shotok)-&amp;gt;Ajoy (1 shotok)&lt;/div&gt;&lt;div&gt;Debabrata (1.66 shotok) --&amp;gt; Ajoy (0.66 shotok)&lt;/div&gt;&lt;div&gt;Ratan (2shotok) --&amp;gt;Ashok &amp;amp; Ajoy (2 shotok)&lt;/div&gt;&lt;div&gt;Ashok (1.66 shotok)&lt;/div&gt;" style="text;align=left;verticalAlign=middle;whiteSpace=wrap;rounded=0;fontFamily=Architects Daughter;fontSource=https%3A%2F%2Ffonts.googleapis.com%2Fcss%3Ffamily%3DArchitects%2BDaughter;html=1;labelBorderColor=none;fontColor=default;" vertex="1" parent="1">
          <mxGeometry x="510" y="291" width="270" height="120" as="geometry" />
        </mxCell>
        <mxCell id="eyxCzTGyWzFZVntszjCe-45" value="A" style="ellipse;whiteSpace=wrap;html=1;aspect=fixed;sketch=1;hachureGap=4;jiggle=2;curveFitting=1;fontFamily=Architects Daughter;fontSource=https%3A%2F%2Ffonts.googleapis.com%2Fcss%3Ffamily%3DArchitects%2BDaughter;" vertex="1" parent="1">
          <mxGeometry x="100" y="406" width="20" height="20" as="geometry" />
        </mxCell>
        <mxCell id="eyxCzTGyWzFZVntszjCe-46" value="B" style="ellipse;whiteSpace=wrap;html=1;aspect=fixed;sketch=1;hachureGap=4;jiggle=2;curveFitting=1;fontFamily=Architects Daughter;fontSource=https%3A%2F%2Ffonts.googleapis.com%2Fcss%3Ffamily%3DArchitects%2BDaughter;" vertex="1" parent="1">
          <mxGeometry x="132.38" y="406" width="20" height="20" as="geometry" />
        </mxCell>
        <mxCell id="eyxCzTGyWzFZVntszjCe-47" value="c" style="ellipse;whiteSpace=wrap;html=1;aspect=fixed;sketch=1;hachureGap=4;jiggle=2;curveFitting=1;fontFamily=Architects Daughter;fontSource=https%3A%2F%2Ffonts.googleapis.com%2Fcss%3Ffamily%3DArchitects%2BDaughter;" vertex="1" parent="1">
          <mxGeometry x="180" y="410" width="20" height="20" as="geometry" />
        </mxCell>
        <mxCell id="eyxCzTGyWzFZVntszjCe-48" value="D" style="ellipse;whiteSpace=wrap;html=1;aspect=fixed;sketch=1;hachureGap=4;jiggle=2;curveFitting=1;fontFamily=Architects Daughter;fontSource=https%3A%2F%2Ffonts.googleapis.com%2Fcss%3Ffamily%3DArchitects%2BDaughter;" vertex="1" parent="1">
          <mxGeometry x="245" y="406" width="20" height="20" as="geometry" />
        </mxCell>
        <mxCell id="eyxCzTGyWzFZVntszjCe-49" value="E" style="ellipse;whiteSpace=wrap;html=1;aspect=fixed;sketch=1;hachureGap=4;jiggle=2;curveFitting=1;fontFamily=Architects Daughter;fontSource=https%3A%2F%2Ffonts.googleapis.com%2Fcss%3Ffamily%3DArchitects%2BDaughter;" vertex="1" parent="1">
          <mxGeometry x="286.5" y="406" width="20" height="20" as="geometry" />
        </mxCell>
        <mxCell id="eyxCzTGyWzFZVntszjCe-50" value="F" style="ellipse;whiteSpace=wrap;html=1;aspect=fixed;sketch=1;hachureGap=4;jiggle=2;curveFitting=1;fontFamily=Architects Daughter;fontSource=https%3A%2F%2Ffonts.googleapis.com%2Fcss%3Ffamily%3DArchitects%2BDaughter;" vertex="1" parent="1">
          <mxGeometry x="330" y="406" width="20" height="20" as="geometry" />
        </mxCell>
        <mxCell id="eyxCzTGyWzFZVntszjCe-51" value="G" style="ellipse;whiteSpace=wrap;html=1;aspect=fixed;sketch=1;hachureGap=4;jiggle=2;curveFitting=1;fontFamily=Architects Daughter;fontSource=https%3A%2F%2Ffonts.googleapis.com%2Fcss%3Ffamily%3DArchitects%2BDaughter;" vertex="1" parent="1">
          <mxGeometry x="368" y="406" width="20" height="20" as="geometry" />
        </mxCell>
        <mxCell id="eyxCzTGyWzFZVntszjCe-52" value="A" style="ellipse;whiteSpace=wrap;html=1;aspect=fixed;sketch=1;hachureGap=4;jiggle=2;curveFitting=1;fontFamily=Architects Daughter;fontSource=https%3A%2F%2Ffonts.googleapis.com%2Fcss%3Ffamily%3DArchitects%2BDaughter;" vertex="1" parent="1">
          <mxGeometry x="80" y="490" width="20" height="20" as="geometry" />
        </mxCell>
        <mxCell id="eyxCzTGyWzFZVntszjCe-54" value="2 shotok jomi, Dolil- I-2754 (Kashi Nath Roy to Debabrata, Ratan, Ashok) --&amp;gt; I-3504 (Debabrata to Ajoy) &amp;amp; I-10591 (Ratan to Ashok&amp;amp;Ajoy)" style="text;html=1;align=left;verticalAlign=middle;whiteSpace=wrap;rounded=0;fontFamily=Architects Daughter;fontSource=https%3A%2F%2Ffonts.googleapis.com%2Fcss%3Ffamily%3DArchitects%2BDaughter;" vertex="1" parent="1">
          <mxGeometry x="110" y="485" width="590" height="30" as="geometry" />
        </mxCell>
        <mxCell id="eyxCzTGyWzFZVntszjCe-55" value="B" style="ellipse;whiteSpace=wrap;html=1;aspect=fixed;sketch=1;hachureGap=4;jiggle=2;curveFitting=1;fontFamily=Architects Daughter;fontSource=https%3A%2F%2Ffonts.googleapis.com%2Fcss%3Ffamily%3DArchitects%2BDaughter;" vertex="1" parent="1">
          <mxGeometry x="79" y="530" width="20" height="20" as="geometry" />
        </mxCell>
        <mxCell id="eyxCzTGyWzFZVntszjCe-56" value="2 shotok jomi, Dolil- I-2753 (Kanan Roy to Pranbandhu, Debabrata, Ratan, Ashok) --&amp;gt; I-3504 (Pranbandhu to Ajoy) &amp;amp; I-10591(Ratan to Ashok&amp;amp;Ajoy)" style="text;html=1;align=left;verticalAlign=middle;whiteSpace=wrap;rounded=0;fontFamily=Architects Daughter;fontSource=https%3A%2F%2Ffonts.googleapis.com%2Fcss%3Ffamily%3DArchitects%2BDaughter;" vertex="1" parent="1">
          <mxGeometry x="109" y="525" width="590" height="30" as="geometry" />
        </mxCell>
        <mxCell id="eyxCzTGyWzFZVntszjCe-57" value="C" style="ellipse;whiteSpace=wrap;html=1;aspect=fixed;sketch=1;hachureGap=4;jiggle=2;curveFitting=1;fontFamily=Architects Daughter;fontSource=https%3A%2F%2Ffonts.googleapis.com%2Fcss%3Ffamily%3DArchitects%2BDaughter;" vertex="1" parent="1">
          <mxGeometry x="81" y="574" width="20" height="20" as="geometry" />
        </mxCell>
        <mxCell id="eyxCzTGyWzFZVntszjCe-58" value="2 shotok jomi, Dolil- I-2768 (Kanan Roy to Pranbandhu, Debabrata, Ratan, Ashok) --&amp;gt; I-3504 (Pranbandhu to Ajoy) &amp;amp; I-10591(Ratan to Ashok&amp;amp;Ajoy)" style="text;html=1;align=left;verticalAlign=middle;whiteSpace=wrap;rounded=0;fontFamily=Architects Daughter;fontSource=https%3A%2F%2Ffonts.googleapis.com%2Fcss%3Ffamily%3DArchitects%2BDaughter;" vertex="1" parent="1">
          <mxGeometry x="111" y="569" width="590" height="30" as="geometry" />
        </mxCell>
        <mxCell id="eyxCzTGyWzFZVntszjCe-59" value="D" style="ellipse;whiteSpace=wrap;html=1;aspect=fixed;sketch=1;hachureGap=4;jiggle=2;curveFitting=1;fontFamily=Architects Daughter;fontSource=https%3A%2F%2Ffonts.googleapis.com%2Fcss%3Ffamily%3DArchitects%2BDaughter;" vertex="1" parent="1">
          <mxGeometry x="82" y="615" width="20" height="20" as="geometry" />
        </mxCell>
        <mxCell id="eyxCzTGyWzFZVntszjCe-60" value="2.5 shotok jomi,&amp;nbsp; (Shonatara Saha to Debabrata)" style="text;html=1;align=left;verticalAlign=middle;whiteSpace=wrap;rounded=0;fontFamily=Architects Daughter;fontSource=https%3A%2F%2Ffonts.googleapis.com%2Fcss%3Ffamily%3DArchitects%2BDaughter;" vertex="1" parent="1">
          <mxGeometry x="112" y="610" width="590" height="30" as="geometry" />
        </mxCell>
        <mxCell id="eyxCzTGyWzFZVntszjCe-61" value="E" style="ellipse;whiteSpace=wrap;html=1;aspect=fixed;sketch=1;hachureGap=4;jiggle=2;curveFitting=1;fontFamily=Architects Daughter;fontSource=https%3A%2F%2Ffonts.googleapis.com%2Fcss%3Ffamily%3DArchitects%2BDaughter;" vertex="1" parent="1">
          <mxGeometry x="80" y="652" width="20" height="20" as="geometry" />
        </mxCell>
        <mxCell id="eyxCzTGyWzFZVntszjCe-62" value="2.5 shotok jomi,&amp;nbsp; (Shonatara Saha to Rebati Mazumder)--&amp;gt; Rebati Mazumder to Debabrata Mazumder" style="text;html=1;align=left;verticalAlign=middle;whiteSpace=wrap;rounded=0;fontFamily=Architects Daughter;fontSource=https%3A%2F%2Ffonts.googleapis.com%2Fcss%3Ffamily%3DArchitects%2BDaughter;" vertex="1" parent="1">
          <mxGeometry x="110" y="647" width="590" height="30" as="geometry" />
        </mxCell>
        <mxCell id="eyxCzTGyWzFZVntszjCe-63" value="F" style="ellipse;whiteSpace=wrap;html=1;aspect=fixed;sketch=1;hachureGap=4;jiggle=2;curveFitting=1;fontFamily=Architects Daughter;fontSource=https%3A%2F%2Ffonts.googleapis.com%2Fcss%3Ffamily%3DArchitects%2BDaughter;" vertex="1" parent="1">
          <mxGeometry x="82" y="697" width="20" height="20" as="geometry" />
        </mxCell>
        <mxCell id="eyxCzTGyWzFZVntszjCe-64" value="2.5 shotok jomi, Dolil - I 3923 (Shonatara Saha to Joydeb Mazumder)--&amp;gt; Danpotro No: I-3319(18 number dankrito toposil marfot Ashok, Ajoy abong Bijoy malik) --&amp;gt; Dolil No I-10744 Dolil er 1 number toposil marfot Bijoy Dan korlo Ashok abong Ajoy ke. tar angsho 0.83 shotok --&amp;gt; Sutorang 2.5shotoker malik Ashok&amp;amp;Ajoy" style="text;html=1;align=left;verticalAlign=middle;whiteSpace=wrap;rounded=0;fontFamily=Architects Daughter;fontSource=https%3A%2F%2Ffonts.googleapis.com%2Fcss%3Ffamily%3DArchitects%2BDaughter;" vertex="1" parent="1">
          <mxGeometry x="112" y="698" width="590" height="30" as="geometry" />
        </mxCell>
        <mxCell id="eyxCzTGyWzFZVntszjCe-65" value="G" style="ellipse;whiteSpace=wrap;html=1;aspect=fixed;sketch=1;hachureGap=4;jiggle=2;curveFitting=1;fontFamily=Architects Daughter;fontSource=https%3A%2F%2Ffonts.googleapis.com%2Fcss%3Ffamily%3DArchitects%2BDaughter;" vertex="1" parent="1">
          <mxGeometry x="81" y="759" width="20" height="20" as="geometry" />
        </mxCell>
        <mxCell id="eyxCzTGyWzFZVntszjCe-66" value="2.5 shotok jomi,&amp;nbsp; (Shonatara Saha to Pranbandhu Mazumder) --&amp;gt; Pranbandhu Mazumder 1 shotok jomi Dokkhin diker malik Joydeb Dey ke bikri korlen abong baki 1.5 shtok jomi Debabrata ke dan korlen pore" style="text;html=1;align=left;verticalAlign=middle;whiteSpace=wrap;rounded=0;fontFamily=Architects Daughter;fontSource=https%3A%2F%2Ffonts.googleapis.com%2Fcss%3Ffamily%3DArchitects%2BDaughter;" vertex="1" parent="1">
          <mxGeometry x="111" y="754" width="590" height="30" as="geometry" />
        </mxCell>
      </root>
    </mxGraphModel>
  </diagram>
</mxfile>
